# xmcd
#
# Track frame offsets:
#	150
#	21597
#	42015
#	78012
#	92052
#	121432
#	134785
#	148500
#	159857
#	183682
#	208500
#
# Disc length: 3181 seconds
#
# Revision: 0
# Processed by: cddbd v1.4PL0 Copyright (c) Steve Scherf et al.
# Submitted via: dBpowerAMP V4.0
#
DISCID=950c6b0b
DTITLE=Billy Paul - 21 grandes sucessos
DYEAR=1900
DGENRE=Blues
TTITLE0=Me and Mrs.Jones
TTITLE1=Billy´s back home
TTITLE2=Black wonders of the world
TTITLE3=Be Truthful to me
TTITLE4=Your song
TTITLE5=Thanks for saving my life
TTITLE6=Bluesette
TTITLE7=Don´t think twice, it´s all right
TTITLE8=Am I black enough for you
TTITLE9=When love is new
TTITLE10=Let´s stay together
EXTD=
EXTT0=
EXTT1=
EXTT2=
EXTT3=
EXTT4=
EXTT5=
EXTT6=
EXTT7=
EXTT8=
EXTT9=
EXTT10=
PLAYORDER=
